<svg xmlns="http://www.w3.org/2000/svg" viewBox="0 0 210 210" width="18" height="18">
    <rect width="130" height="10"                 rx="5" fill="#bbbbbb" />
    <rect width="40"  height="10"         y="20"  rx="5" fill="#bbbbbb" />
    <rect width="110" height="10" x="50"  y="20"  rx="5" fill="#bbbbbb" />
    <rect width="80"  height="10"         y="40"  rx="5" fill="#bbbbbb" />
    <rect width="50"  height="10" x="90"  y="40"  rx="5" fill="#bbbbbb" />
    <rect width="20"  height="10" x="150" y="40"  rx="5" fill="#bbbbbb" />
    <rect width="50"  height="10"         y="60"  rx="5" fill="#bbbbbb" />
    <rect width="60"  height="10" x="120" y="60"  rx="5" fill="#bbbbbb" />
    <rect width="50"  height="10"         y="80"  rx="5" fill="#bbbbbb" />
    <rect width="60"  height="10" x="120" y="80"  rx="5" fill="#bbbbbb" />
    <rect width="20"  height="10"         y="100" rx="5" fill="#bbbbbb" />
    <rect width="40"  height="10" x="30"  y="100" rx="5" fill="#bbbbbb" />
    <rect width="90"  height="10" x="80"  y="100" rx="5" fill="#bbbbbb" />
    <rect width="50"  height="10"         y="120" rx="5" fill="#bbbbbb" />
    <rect width="50"  height="10" x="60"  y="120" rx="5" fill="#bbbbbb" />
    <rect width="40"  height="10" x="120" y="120" rx="5" fill="#bbbbbb" />
    <rect width="20"  height="10"         y="140" rx="5" fill="#bbbbbb" />
    <rect width="100" height="10" x="30"  y="140" rx="5" fill="#bbbbbb" />
    <rect width="70"  height="10"         y="160" rx="5" fill="#bbbbbb" />
    <rect width="30"  height="10"         y="180" rx="5" fill="#bbbbbb" />
    <rect width="30"  height="10" x="40"  y="180" rx="5" fill="#bbbbbb" />
    <rect width="70"  height="10"         y="200" rx="5" fill="#bbbbbb" />
</svg>
